<svg xmlns="http://www.w3.org/2000/svg" width="1200" height="630" viewBox="0 0 1200 630" role="img" aria-labelledby="title desc">
  <title id="title">Cardiac Field and Social Interaction</title><desc id="desc">Fieldlight Institute Working Hypothesis 0.1.</desc>
  <defs><pattern id="grid" width="72" height="72" patternUnits="userSpaceOnUse"><path d="M72 0H0V72" fill="none" stroke="#21404c" stroke-width="1"/></pattern><linearGradient id="wash" x1="0" y1="0" x2="1" y2="1"><stop offset="0" stop-color="#071f2c"/><stop offset="0.72" stop-color="#0a2733"/><stop offset="1" stop-color="#153b43"/></linearGradient></defs>
  <rect width="1200" height="630" fill="url(#wash)"/><rect width="1200" height="630" fill="url(#grid)" opacity="0.72"/><circle cx="1080" cy="80" r="260" fill="#8065db" opacity="0.1"/><circle cx="80" cy="650" r="310" fill="#2f6f5e" opacity="0.18"/>
  <rect x="72" y="62" width="96" height="8" fill="#2f6f5e"/><rect x="168" y="62" width="54" height="8" fill="#d8a434"/><rect x="222" y="62" width="74" height="8" fill="#8065db"/>
  <text x="72" y="118" fill="#d8a434" font-family="Arial, Helvetica, sans-serif" font-size="19" font-weight="700" letter-spacing="3.5">CONSCIOUSNESS RESEARCH / WORKING HYPOTHESIS 0.1</text>
  <text x="72" y="228" fill="#fff8eb" font-family="Georgia, 'Times New Roman', serif" font-size="70">Cardiac Field and</text><text x="72" y="310" fill="#fff8eb" font-family="Georgia, 'Times New Roman', serif" font-size="70">Social Interaction</text>
  <text x="74" y="376" fill="#a9bbb9" font-family="Arial, Helvetica, sans-serif" font-size="25">What is established, what remains open, what comes next.</text>
  <line x1="72" y1="424" x2="1128" y2="424" stroke="#56707a" stroke-width="1"/>
  <g font-family="Arial, Helvetica, sans-serif" font-size="16" font-weight="700" letter-spacing="2"><text x="72" y="486" fill="#dfece7">H1 SUPPORTED</text><text x="278" y="486" fill="#dfece7">H2 ESTABLISHED</text><text x="508" y="486" fill="#dfece7">H3 CONTEXTUAL</text><text x="733" y="486" fill="#f3d996">H4 OPEN</text><text x="917" y="486" fill="#f4c1ba">H5 UNSUPPORTED</text></g>
  <line x1="72" y1="515" x2="205" y2="515" stroke="#2f6f5e" stroke-width="5"/><line x1="278" y1="515" x2="419" y2="515" stroke="#2f6f5e" stroke-width="5"/><line x1="508" y1="515" x2="646" y2="515" stroke="#2f6f5e" stroke-width="5"/><line x1="733" y1="515" x2="825" y2="515" stroke="#d8a434" stroke-width="5"/><line x1="917" y1="515" x2="1087" y2="515" stroke="#d95b50" stroke-width="5"/>
  <text x="72" y="584" fill="#9eb0b7" font-family="Arial, Helvetica, sans-serif" font-size="18" letter-spacing="2">FIELDLIGHT INSTITUTE</text><text x="1128" y="584" fill="#9eb0b7" font-family="Arial, Helvetica, sans-serif" font-size="18" text-anchor="end">fieldlight.com</text>
</svg>
